<?xml version="1.0" encoding="UTF-8"?>
<svg width="163px" height="163px" viewBox="0 0 163 163" version="1.1" xmlns="http://www.w3.org/2000/svg" xmlns:xlink="http://www.w3.org/1999/xlink">
    <!-- Generator: Sketch 53.2 (72643) - https://sketchapp.com -->
    <title>icon</title>
    <desc>Created with Sketch.</desc>
    <g id="Page-1" stroke="none" stroke-width="1" fill="none" fill-rule="evenodd">
        <g id="icon">
            <path d="M0,81.5006436 C0,36.487025 36.4885998,0 81.498713,0 C126.5114,0 163,36.487025 163,81.5006436 C163,126.509114 126.5114,163 81.498713,163 C36.4885998,163 0,126.509114 0,81.5006436 Z" id="Shape" fill="#284A9F" fill-rule="nonzero"></path>
            <path d="M125.272727,42.6976904 C123.272727,40.1329587 108.181818,38.1178124 100.363636,32.0723734 C100.363636,32.0723734 99.2727273,31.7059831 98.5454545,32.6219587 C94.7272727,38.3010075 90.9090909,43.0640806 82,43.0640806 C73.0909091,43.0640806 69.2727273,38.3010075 65.4545455,32.6219587 C64.9090909,31.7059831 63.6363636,32.0723734 63.6363636,32.0723734 C55.8181818,37.9346172 40.7272727,40.1329587 38.7272727,42.6976904 C34.3636364,48.3767391 28.1818182,60.8340073 24,68.8945926 C27.8181818,75.3064218 36.5454545,79.1535193 42.7272727,79.7031047 C44.7272727,77.6879583 47.8181818,71.8257145 49.6363636,71.8257145 C50.5454545,71.8257145 52.3636364,78.0543486 52.3636364,91.4275924 C52.3636364,101.503324 49.0909091,121.837982 49.0909091,128.249812 C56.9090909,131.180933 72.9090909,130.997738 82,130.997738 C91.0909091,130.997738 107.090909,131.180933 114.909091,128.249812 C114.909091,121.837982 111.636364,101.503324 111.636364,91.4275924 C111.636364,78.0543486 113.454545,71.8257145 114.363636,71.8257145 C116.181818,71.8257145 119.272727,77.6879583 121.272727,79.7031047 C127.272727,79.1535193 136,75.1232266 140,68.8945926 C135.818182,60.8340073 129.636364,48.3767391 125.272727,42.6976904 Z" id="Path" fill="#FFFFFF"></path>
            <g id="iconfinder_Google_Plus_1298744" transform="translate(63.000000, 62.000000)" fill="#284A9F">
                <path d="M19.2671011,15.6384953 L19.2671011,23.3615047 C19.2671011,23.3615047 26.669395,23.3514499 29.6835821,23.3514499 C28.0513713,28.3577602 25.5134826,31.0840352 19.2671011,31.0840352 C12.9458389,31.0840352 8.01224017,25.8976969 8.01224017,19.5 C8.01224017,13.1023031 12.9458389,7.91596484 19.2671011,7.91596484 C22.609247,7.91596484 24.7679926,9.1048199 26.7475932,10.7619393 C28.3324111,9.15796646 28.200185,8.92910109 32.2323711,5.0752572 C28.8096574,1.92189457 24.259941,0 19.2671011,0 C8.62597796,1.70103167e-15 0,8.73039998 0,19.5 C0,30.2696 8.62597796,39 19.2671011,39 C35.1726254,39 39.0597893,24.983193 37.7711769,15.6384953 L19.2671011,15.6384953 Z" id="Google_Plus_1_"></path>
            </g>
        </g>
    </g>
</svg>